Patient4_TMGait_0pt5_02_left_14_GRF.mot
version=1
nRows=32
nColumns=19
inDegrees=no
endheader
time	F1x	F1y	F1z	M1x	M1y	M1z	F2x	F2y	F2z	M2x	M2y	M2z	EC1x	EC1y	EC1z	EC2x	EC2y	EC2z
17.62	-13.3506	3.7292	3.8611	-1.6743	-8.1589	8.6172	-37.6652	724.0917	-51.378	280.0836	58.2224	648.8308	-0.0592	0.0182	-0.0073	-0.0462	0.0165	0.9585
17.6331	-8.9405	2.9777	2.5926	-1.3085	-5.5443	6.205	-35.2409	735.1333	-50.4296	283.6294	57.0833	654.0982	-0.0592	0.0182	-0.0073	-0.0462	0.0165	0.9585
17.6463	-5.2215	2.3595	1.5262	-0.99948	-3.3265	4.2039	-32.7479	747.5409	-49.5835	287.8663	55.8238	659.8713	-0.0592	0.0182	-0.0073	-0.0462	0.0165	0.9585
17.6594	-2.4008	1.9106	0.71408	-0.76757	-1.6276	2.7077	-30.3939	760.6844	-48.8859	292.5599	54.5189	665.8231	-0.0592	0.0182	-0.0073	-0.0462	0.0165	0.9585
17.6726	-0.46116	1.6238	0.15616	-0.61286	-0.44951	1.6953	-28.2881	773.7366	-48.3539	297.3604	53.2241	671.4526	-0.0592	0.0182	-0.0073	-0.0462	0.0165	0.9585
17.6857	0.72298	1.4666	-0.18605	-0.5234	0.27935	1.087	-26.44	785.697	-47.9794	301.8369	51.963	676.0883	-0.0592	0.0182	-0.0073	-0.0462	0.0165	0.9585
17.6989	1.3307	1.3844	-0.35412	-0.47651	0.65339	0.7529	-24.7857	795.5289	-47.7102	305.5441	50.7026	678.9902	-0.0592	0.0182	-0.0073	-0.0462	0.0165	0.9585
17.712	1.5171	1.3327	-0.40262	-0.44961	0.77573	0.58897	-23.225	802.3121	-47.4919	308.0852	49.4005	679.4875	-0.0592	0.0182	-0.0073	-0.0462	0.0165	0.9585
17.7251	1.4424	1.2506	-0.37062	-0.41554	0.73399	0.4727	-21.6611	805.3465	-47.2554	309.1602	48.0038	677.0672	-0.0592	0.0182	-0.0073	-0.0462	0.0165	0.9585
17.7383	1.2066	1.0779	-0.29609	-0.3461	0.59551	0.31685	-20.0268	804.2518	-46.95	308.6025	46.4833	671.4783	-0.0592	0.0182	-0.0073	-0.0462	0.0165	0.9585
17.7514	0.89619	0.732	-0.19868	-0.20846	0.40486	0.023478	-18.2476	799.0299	-46.5158	306.4034	44.7947	662.7567	-0.0592	0.0182	-0.0073	-0.0462	0.0165	0.9585
17.7646	0.57251	0.13994	-0.096101	0.024738	0.20201	-0.47746	-16.2661	790.0959	-45.9176	302.7178	42.9111	651.2594	-0.0592	0.0182	-0.0073	-0.0462	0.0165	0.9585
17.7777	0.28157	-0.75537	0.004588	0.37412	0.012296	-1.2455	-14.0253	778.1931	-45.1462	297.8315	40.8183	637.5834	-0.0592	0.0182	-0.0073	-0.0462	0.0165	0.9585
17.7909	0.074499	-1.9722	0.09064	0.84414	-0.13468	-2.3259	-11.4879	764.3123	-44.2599	292.1214	38.5599	622.516	-0.0592	0.0182	-0.0073	-0.0462	0.0165	0.9585
17.804	-0.0039395	-3.4454	0.15173	1.4092	-0.21311	-3.6649	-8.6326	749.5841	-43.36	286.0152	36.2085	606.9467	-0.0592	0.0182	-0.0073	-0.0462	0.0165	0.9585
17.8171	0.12844	-5.0001	0.16383	1.9979	-0.16875	-5.1116	-5.4549	735.1649	-42.6007	279.9493	33.884	591.771	-0.0592	0.0182	-0.0073	-0.0462	0.0165	0.9585
17.8303	0.5426	-6.282	0.10327	2.4741	0.054456	-6.3229	-1.9927	722.1452	-42.1312	274.3315	31.7139	577.8295	-0.0592	0.0182	-0.0073	-0.0462	0.0165	0.9585
17.8434	1.3354	-6.7191	-0.067284	2.6144	0.5294	-6.7629	1.7078	711.4079	-42.0801	269.497	29.8161	565.7733	-0.0592	0.0182	-0.0073	-0.0462	0.0165	0.9585
17.8566	2.5911	-5.4665	-0.37805	2.0896	1.3162	-5.6323	5.5521	703.5449	-42.509	265.6813	28.2715	556.0352	-0.0592	0.0182	-0.0073	-0.0462	0.0165	0.9585
17.8697	4.3633	-1.4045	-0.86447	0.46189	2.4643	-1.87	9.4358	698.7673	-43.4069	262.987	27.1061	548.7446	-0.0592	0.0182	-0.0073	-0.0462	0.0165	0.9585
17.8829	6.6133	6.8056	-1.5339	-2.7941	3.9645	5.7893	13.2431	696.8567	-44.6881	261.3606	26.2846	543.7101	-0.0592	0.0182	-0.0073	-0.0462	0.0165	0.9585
17.896	9.1518	20.5698	-2.3709	-8.2295	5.7266	18.6863	16.8678	697.1248	-46.21	260.5746	25.7304	540.3851	-0.0592	0.0182	-0.0073	-0.0462	0.0165	0.9585
17.9091	11.57	41.0431	-3.2973	-16.2942	7.5104	37.9407	20.208	698.4492	-47.782	260.238	25.3357	537.9176	-0.0592	0.0182	-0.0073	-0.0462	0.0165	0.9585
17.9223	13.1462	68.6514	-4.1592	-27.1478	8.8797	64.015	23.1653	699.3897	-49.1929	259.8383	24.9813	535.2415	-0.0592	0.0182	-0.0073	-0.0462	0.0165	0.9585
17.9354	12.9739	102.5567	-4.7398	-40.4494	9.2707	96.1832	25.6636	698.3564	-50.2385	258.8023	24.5512	531.1949	-0.0592	0.0182	-0.0073	-0.0462	0.0165	0.9585
17.9486	10.5775	140.4792	-4.7453	-55.2814	8.2254	132.3579	27.6356	693.8655	-50.7411	256.5881	23.946	524.7217	-0.0592	0.0182	-0.0073	-0.0462	0.0165	0.9585
17.9617	6.5813	178.8337	-3.8069	-70.2032	5.6396	169.1494	29.0503	684.8203	-50.5863	252.7912	23.1071	515.0514	-0.0592	0.0182	-0.0073	-0.0462	0.0165	0.9585
17.9749	2.0275	212.8922	-1.5451	-83.3538	1.5763	201.9648	29.8968	670.7148	-49.7323	247.2189	22.0202	501.8582	-0.0592	0.0182	-0.0073	-0.0462	0.0165	0.9585
17.988	-2.0636	238.9578	1.7555	-93.3244	-3.2627	227.1272	30.2296	651.7314	-48.2368	239.9265	20.7222	485.3043	-0.0592	0.0182	-0.0073	-0.0462	0.0165	0.9585
18.0011	-5.2977	256.582	5.5147	-99.9731	-8.1337	244.1631	30.1657	628.7345	-46.2386	231.2149	19.2752	466.0376	-0.0592	0.0182	-0.0073	-0.0462	0.0165	0.9585
18.0143	-7.8013	268.1376	9.1296	-104.2599	-12.5114	255.3557	29.9025	602.9832	-43.9432	221.5266	17.7552	444.9677	-0.0592	0.0182	-0.0073	-0.0462	0.0165	0.9585
18.0274	-9.974	277.1326	12.255	-107.5731	-16.2315	264.1062	29.6874	575.697	-41.4868	211.2995	16.1613	422.9526	-0.0592	0.0182	-0.0073	-0.0462	0.0165	0.9585
